<?xml version="1.0" encoding="UTF-8" standalone="no"?>
<svg
   width="320"
   height="150"
   viewBox="0 0 320 150"
   version="1.1"
   xml:space="preserve"
   style="clip-rule:evenodd;fill-rule:evenodd;stroke-linecap:round;stroke-linejoin:round;stroke-miterlimit:1.5"
   id="svg10"
   sodipodi:docname="voc4cat-logo-dark-mode.svg"
   inkscape:version="1.3.2 (091e20e, 2023-11-25, custom)"
   xmlns:inkscape="http://www.inkscape.org/namespaces/inkscape"
   xmlns:sodipodi="http://sodipodi.sourceforge.net/DTD/sodipodi-0.dtd"
   xmlns="http://www.w3.org/2000/svg"
   xmlns:svg="http://www.w3.org/2000/svg">
    <g
   transform="matrix(101.91852,0,0,107.27655,4.0355905,104.60792)"
   id="g1">
            <path
   d="m 0.302,-0.108 h 0.002 l 0.232,-0.6 H 0.614 L 0.338,0 H 0.266 l -0.269,-0.708 h 0.08 z"
   style="fill:#cfd0d0;fill-rule:nonzero"
   id="path1" />
        </g><g
   transform="matrix(101.91852,0,0,107.27655,54.370277,103.32061)"
   id="g2">
            <path
   d="M 0.473,-0.234 C 0.473,-0.26 0.469,-0.284 0.461,-0.307 0.452,-0.33 0.44,-0.349 0.425,-0.366 0.41,-0.383 0.391,-0.396 0.37,-0.406 0.348,-0.415 0.323,-0.42 0.296,-0.42 c -0.027,0 -0.052,0.005 -0.073,0.014 -0.022,0.01 -0.04,0.023 -0.055,0.04 -0.015,0.017 -0.027,0.036 -0.035,0.059 -0.009,0.023 -0.013,0.047 -0.013,0.073 0,0.026 0.004,0.05 0.013,0.073 0.008,0.023 0.02,0.042 0.035,0.059 0.015,0.017 0.033,0.03 0.055,0.039 0.021,0.01 0.046,0.015 0.073,0.015 0.027,0 0.052,-0.005 0.074,-0.015 0.021,-0.009 0.04,-0.022 0.055,-0.039 0.015,-0.017 0.027,-0.036 0.036,-0.059 0.008,-0.023 0.012,-0.047 0.012,-0.073 z m 0.072,0 c 0,0.035 -0.006,0.068 -0.018,0.098 -0.013,0.03 -0.03,0.056 -0.052,0.078 C 0.453,-0.036 0.427,-0.019 0.397,-0.007 0.366,0.006 0.333,0.012 0.296,0.012 0.26,0.012 0.227,0.006 0.197,-0.007 0.166,-0.019 0.14,-0.036 0.118,-0.058 0.096,-0.08 0.079,-0.106 0.067,-0.136 0.054,-0.166 0.048,-0.199 0.048,-0.234 c 0,-0.035 0.006,-0.068 0.019,-0.098 0.012,-0.03 0.029,-0.056 0.051,-0.078 0.022,-0.022 0.048,-0.039 0.079,-0.052 0.03,-0.012 0.063,-0.018 0.099,-0.018 0.037,0 0.07,0.006 0.101,0.018 0.03,0.013 0.056,0.03 0.078,0.052 0.022,0.022 0.039,0.048 0.052,0.078 0.012,0.03 0.018,0.063 0.018,0.098 z"
   style="fill:#cfd0d0;fill-rule:nonzero"
   id="path2" />
        </g><g
   transform="matrix(101.91852,0,0,107.27655,110.54778,103.30911)"
   id="g3">
            <path
   d="M 0.413,-0.358 C 0.402,-0.375 0.386,-0.39 0.366,-0.402 0.345,-0.414 0.322,-0.42 0.296,-0.42 0.269,-0.421 0.244,-0.416 0.223,-0.407 0.201,-0.398 0.182,-0.385 0.167,-0.368 0.152,-0.351 0.14,-0.332 0.132,-0.309 0.124,-0.286 0.12,-0.261 0.12,-0.234 c 0,0.027 0.004,0.051 0.012,0.074 0.008,0.024 0.02,0.043 0.035,0.06 0.015,0.017 0.034,0.03 0.056,0.039 0.021,0.009 0.046,0.014 0.073,0.013 0.026,0 0.049,-0.006 0.07,-0.018 0.02,-0.012 0.036,-0.027 0.047,-0.044 l 0.054,0.041 C 0.444,-0.042 0.417,-0.022 0.388,-0.009 0.359,0.005 0.328,0.011 0.296,0.012 0.258,0.013 0.224,0.007 0.193,-0.006 0.162,-0.018 0.136,-0.035 0.115,-0.057 0.093,-0.079 0.076,-0.105 0.065,-0.136 0.054,-0.166 0.048,-0.199 0.048,-0.234 c 0,-0.035 0.006,-0.068 0.017,-0.099 0.011,-0.03 0.028,-0.056 0.05,-0.078 0.021,-0.022 0.047,-0.039 0.078,-0.052 0.031,-0.012 0.065,-0.018 0.103,-0.017 0.032,0.001 0.063,0.008 0.092,0.02 0.029,0.013 0.056,0.034 0.079,0.061 z"
   style="fill:#cfd0d0;fill-rule:nonzero"
   id="path3" />
        </g><g
   transform="matrix(0.09417411,0,0,0.09417411,-13.561407,-36.165331)"
   id="g5">
        <path
   d="m 2108.11,936.409 h 107.01 l -203.77,449.351 h 209.3 l 9.62,-235.02 91.82,-12.64 v 252.72 l 54.15,-5.06 v 105.42 l -54.15,-5.45 v 202.92 l -101.44,18.43 v -215.9 h -325.11 v -105.42 z"
   style="fill:#91c63f;stroke:#000000;stroke-width:1px"
   id="path4" />
    </g><g
   transform="matrix(0.09417411,0,0,0.09417411,-10.496582,-26.214509)"
   id="g6">
        <path
   d="m 3404.89,1629.33 c -101.63,92.95 -229.51,148.37 -368.36,148.37 -330.61,0 -599.02,-314.19 -599.02,-701.18 0,-386.997 268.41,-701.187 599.02,-701.187 128.21,0 247.06,47.245 344.53,127.658 l -35.85,38.384 -15.05,15.738 c -76.38,-52.131 -165.3,-82.03 -260.19,-82.03 -115.72,0 -222.04,20.127 -308.08,95.169 -125.36,109.326 -207.07,307.88 -207.07,503.958 0,185.38 69.29,386.25 183.14,496.19 89.23,86.16 207.09,102.94 332.01,102.94 105.98,0 204.52,-37.3 286.45,-101.21 l 11.39,13.45 36.51,43.3 -36.51,-43.3 z"
   style="fill:#3590ff"
   id="path5" />
    </g><g
   transform="matrix(1.9549415,0,0,2.016409,-1019.1388,-4233.6398)"
   id="g8">
        <g
   transform="matrix(50,0,0,50,642.585,2152.89)"
   id="g7">
            <path
   d="M 0.361,-0.06 C 0.324,-0.014 0.267,0.01 0.191,0.01 0.15,0.01 0.114,-0.005 0.084,-0.035 0.054,-0.065 0.039,-0.102 0.039,-0.146 c 0,-0.053 0.023,-0.098 0.07,-0.135 0.046,-0.036 0.105,-0.054 0.177,-0.054 0.02,0 0.042,0.004 0.067,0.012 0,-0.084 -0.038,-0.127 -0.114,-0.127 -0.058,0 -0.102,0.016 -0.134,0.047 L 0.066,-0.48 c 0.018,-0.015 0.042,-0.027 0.073,-0.037 0.031,-0.011 0.061,-0.016 0.09,-0.016 0.075,0 0.13,0.018 0.165,0.052 0.034,0.035 0.051,0.089 0.051,0.165 v 0.187 c 0,0.046 0.014,0.077 0.041,0.092 V 0.009 C 0.449,0.009 0.42,0.004 0.402,-0.007 0.383,-0.018 0.369,-0.035 0.361,-0.06 Z M 0.353,-0.257 c -0.03,-0.006 -0.05,-0.01 -0.062,-0.01 -0.047,0 -0.085,0.012 -0.115,0.037 -0.029,0.024 -0.044,0.052 -0.044,0.085 0,0.054 0.032,0.082 0.096,0.082 0.047,0 0.088,-0.023 0.125,-0.067 z"
   style="fill:#3590ff"
   id="path6" />
        </g>
    </g><g
   transform="matrix(1.8461233,0,0,2.0535606,-904.46394,-4312.9155)"
   id="g10">
        <g
   transform="matrix(50,0,0,50,642.585,2152.89)"
   id="g9">
            <path
   d="m 0.099,-0.45 h -0.06 v -0.073 h 0.06 v -0.109 l 0.093,-0.036 v 0.145 H 0.335 V -0.45 H 0.192 v 0.26 c 0,0.044 0.007,0.075 0.022,0.094 0.015,0.018 0.039,0.028 0.072,0.028 0.023,0 0.048,-0.006 0.073,-0.018 l 0.014,0.081 C 0.335,0.005 0.292,0.01 0.247,0.01 0.205,0.01 0.17,-0.006 0.142,-0.036 0.113,-0.067 0.099,-0.106 0.099,-0.153 Z"
   style="fill:#3590ff"
   id="path8" />
        </g>
    </g>
</svg>
