<?xml version="1.0" encoding="windows-1252"?>
<svg xmlns="http://www.w3.org/2000/svg" xml:space="preserve" version="1.2" baseProfile="tiny" overflow="visible" xmlns:xlink="http://www.w3.org/1999/xlink" viewBox="-0.891 -0.75 82 17" xmlns:dc="http://purl.org/dc/elements/1.1/">
  <title property="dc:title">SKOS Button on blue background</title>
  <desc property="dc:description">The button combines three entities displayed horizontally: the W3C logo with the text 'W3C'; the drawing of a cube whose top part is slightly peeled off; and the text 'SKOS'. These three entities are set horizontally, with the 'SKOS' text appearing on a blue background</desc>
  <metadata>
	<rdf:RDF xmlns:rdf="http://www.w3.org/1999/02/22-rdf-syntax-ns#" xmlns:rdfs="http://www.w3.org/2000/01/rdf-schema#" xmlns:cc="http://creativecommons.org/ns#" xmlns:dc="http://purl.org/dc/elements/1.1/">
		<cc:Work rdf:about="">
	        <dc:format>image/svg+xml</dc:format>
			<rdfs:seeAlso rdf:resource="http://www.w3.org/2007/10/sw-logos.html"/>
	        <dc:date>2009-04-27</dc:date>
			<cc:license rdf:resource="http://www.w3.org/Consortium/Legal/2002/copyright-documents-20021231"/>
			<cc:morePermissions rdf:resource="http://www.w3.org/2007/10/sw-logos.html#LogoWithW3C"/>
			<cc:attributionURL rdf:resource="http://www.w3.org/2001/sw/"/>
		</cc:Work>
	</rdf:RDF>
  </metadata>
  <text x="2" y="12" font-size="12" fill-opacity="0" font-family="Trebuchet" letter-spacing="-12">W3C</text>
  <text x="41" y="12" font-size="11" fill-opacity="0" font-family="Trebuchet" letter-spacing="-12">SKOS</text>
  <g shape-rendering="geometricPrecision" text-rendering="geometricPrecision" image-rendering="optimizeQuality">
    <defs>
    </defs>
    <rect y="0.25" x="0.249" fill="#FFFFFF" width="41.5" height="15"/>
    <rect y="0.25" x="39.291" fill="#005B9D" width="40.819" height="15"/>
    <g>
      <defs>
        <rect y="0.25" x="0.109" width="80" id="XMLID_6_" height="15"/>
      </defs>
      <clipPath id="XMLID_9_">
        <use xlink:href="#XMLID_6_"/>
      </clipPath>
      <rect clip-path="url(#XMLID_9_)" height="15" width="80" stroke="#005A9C" y="0.25" x="0.25" stroke-width="0.5" fill="none"/>
      <path clip-path="url(#XMLID_9_)" d="M23.912,1.423c0.405,0,0.728,0.329,0.728,0.735   c0,0.412-0.323,0.739-0.732,0.739c-0.404,0-0.734-0.327-0.734-0.739c0-0.406,0.33-0.735,0.734-0.735H23.912z M23.906,1.57   c-0.308,0-0.556,0.264-0.556,0.591c0,0.33,0.248,0.588,0.558,0.588c0.311,0.004,0.562-0.258,0.562-0.588   c0-0.327-0.251-0.591-0.562-0.591H23.906z M23.782,2.586h-0.174V1.769c0.066-0.01,0.138-0.023,0.262-0.023   c0.14,0,0.225,0.023,0.28,0.065c0.046,0.036,0.072,0.092,0.072,0.177c0,0.098-0.068,0.166-0.156,0.189v0.007   c0.071,0.014,0.117,0.078,0.13,0.2c0.017,0.127,0.033,0.176,0.046,0.202h-0.18c-0.019-0.029-0.033-0.102-0.049-0.213   C24,2.284,23.948,2.25,23.859,2.25h-0.077V2.586z M23.782,2.115h0.081c0.102,0,0.18-0.033,0.18-0.118   c0-0.068-0.049-0.121-0.167-0.121c-0.042,0-0.072,0-0.094,0.004V2.115z" fill="#1B1B1F"/>
      <path clip-path="url(#XMLID_9_)" d="M22.711,2.271l0.229,1.398l-0.813,1.558c0,0-0.312-0.66-0.832-1.026   c-0.438-0.309-0.724-0.376-1.169-0.285c-0.572,0.119-1.221,0.803-1.504,1.647c-0.339,1.01-0.343,1.5-0.354,1.947   c-0.019,0.721,0.094,1.145,0.094,1.145s-0.494-0.914-0.49-2.253c0.004-0.956,0.154-1.824,0.596-2.68   c0.39-0.752,0.968-1.204,1.481-1.256c0.531-0.055,0.95,0.2,1.275,0.477c0.34,0.29,0.685,0.928,0.685,0.928L22.711,2.271z" fill="#1B1B1F"/>
      <path clip-path="url(#XMLID_9_)" d="M22.811,10.185c0,0-0.358,0.643-0.583,0.892   c-0.225,0.248-0.626,0.685-1.121,0.902c-0.496,0.22-0.756,0.261-1.246,0.212c-0.489-0.045-0.945-0.329-1.104-0.448   c-0.158-0.117-0.566-0.465-0.796-0.79c-0.231-0.325-0.59-0.974-0.59-0.974s0.2,0.65,0.326,0.927   c0.072,0.158,0.295,0.645,0.609,1.067c0.294,0.395,0.865,1.074,1.733,1.228c0.867,0.153,1.463-0.237,1.61-0.33   c0.147-0.094,0.458-0.354,0.655-0.565c0.205-0.22,0.401-0.5,0.507-0.668c0.079-0.123,0.207-0.371,0.207-0.371L22.811,10.185z" fill="#1B1B1F"/>
      <polygon clip-path="url(#XMLID_9_)" points="7.833,2.333 9.794,9.001 11.755,2.333 13.175,2.333 9.93,13.288    9.794,13.288 7.766,6.5 5.735,13.288 5.602,13.288 2.354,2.333 3.774,2.333 5.735,9.001 7.063,4.511 6.413,2.333  " fill="#005FAD"/>
      <path clip-path="url(#XMLID_9_)" d="M17.207,9.771c0,0.991-0.264,1.826-0.79,2.502   c-0.527,0.677-1.211,1.015-2.05,1.015c-0.631,0-1.18-0.201-1.649-0.602c-0.47-0.401-0.817-0.944-1.041-1.63l1.108-0.459   c0.162,0.414,0.377,0.741,0.643,0.979c0.265,0.241,0.578,0.359,0.939,0.359c0.379,0,0.699-0.211,0.961-0.636   c0.262-0.423,0.393-0.934,0.393-1.528c0-0.658-0.141-1.167-0.42-1.527c-0.324-0.425-0.834-0.638-1.528-0.638h-0.541V6.958   l1.893-3.273h-2.285l-0.637,1.082h-0.404V2.333h5.273v0.662L15.07,6.444c0.704,0.225,1.237,0.635,1.596,1.23   C17.026,8.271,17.207,8.969,17.207,9.771" fill="#005FAD"/>
      <path clip-path="url(#XMLID_9_)" d="M31.437,2.481c3.523,1.588,4.291-1.339,4.291-1.339s-0.67,3.672-3.758,5.172   c-0.63,0.305-1.02,0.469-1.02,0.469l-5.06-2.467l5.06-2.074C30.95,2.242,30.828,2.208,31.437,2.481" fill="#98C000"/>
      <polygon clip-path="url(#XMLID_9_)" points="30.36,13.235 25.646,10.682 25.646,5.418 30.36,7.814  " fill="#F08400"/>
      <polygon clip-path="url(#XMLID_9_)" points="31.421,13.235 36.134,10.682 36.134,5.418 31.421,7.814  " fill="#AF0084"/>
      <path clip-path="url(#XMLID_9_)" d="M49.143,5.77c-1.267-0.538-2.022-0.746-2.765-0.746   c-0.781,0-1.28,0.269-1.28,0.685c0,1.259,4.442,0.904,4.442,3.813c0,1.601-1.408,2.53-3.354,2.53c-1.522,0-2.278-0.379-3.149-0.807   V9.449c1.255,0.794,2.023,1.075,2.983,1.075c0.832,0,1.28-0.281,1.28-0.77c0-1.369-4.442-0.868-4.442-3.862   c0-1.443,1.307-2.396,3.328-2.396c0.973,0,1.856,0.195,2.957,0.648V5.77z" fill="#FFFFFF"/>
      <polygon clip-path="url(#XMLID_9_)" points="55.502,7.518 59.357,11.942 56.628,11.942 53.172,8.031 53.172,11.942    50.996,11.942 50.996,3.607 53.172,3.607 53.172,7.383 53.198,7.383 55.951,3.607 58.344,3.607  " fill="#FFFFFF"/>
      <path clip-path="url(#XMLID_9_)" d="M63.95,12.053c-3.2,0-5.006-2.151-5.006-4.278c0-2.017,1.716-4.278,5.006-4.278   s4.993,2.274,4.993,4.278C68.943,9.913,67.086,12.053,63.95,12.053 M63.95,5.232c-1.664,0-2.766,1.014-2.766,2.542   c0,1.528,1.102,2.542,2.766,2.542c1.651,0,2.752-1.014,2.752-2.542C66.702,6.247,65.601,5.232,63.95,5.232" fill="#FFFFFF"/>
      <path clip-path="url(#XMLID_9_)" d="M76.375,5.77c-1.267-0.538-2.022-0.746-2.765-0.746   c-0.781,0-1.28,0.269-1.28,0.685c0,1.259,4.442,0.904,4.442,3.813c0,1.601-1.408,2.53-3.354,2.53c-1.523,0-2.278-0.379-3.149-0.807   V9.449c1.255,0.794,2.023,1.075,2.983,1.075c0.832,0,1.28-0.281,1.28-0.77c0-1.369-4.442-0.868-4.442-3.862   c0-1.443,1.306-2.396,3.328-2.396c0.973,0,1.856,0.195,2.957,0.648V5.77z" fill="#FFFFFF"/>
    </g>
  </g>
</svg>